# xmcd
# 
# Track frame offsets:
#	150
#	17913
#	38750
#	52030
#	71445
#	85118
#	97076
#	113340
#	129139
#	139163
#	152502
#	173969
#	189592
#	204381
#	216892
#	233192
#
# Disc length: 3260 seconds
#
# Revision: 1
# Processed by: cddbd v1.4PL0 Copyright (c) Steve Scherf et al.
# Submitted via: Audio-CD-Archiv 2.10.441
#
DISCID=d40cba10
DTITLE=Various Artist - Könige der Landstrasse CD 2 - Fahre gegen den Wind
DYEAR=1900
DGENRE=country
TTITLE0=Western Starlights - Fahre gegen den Wind
TTITLE1=Gunter Gabriel - Er ist ein Kerl ( Der 30- Tonner Diesel )
TTITLE2=Hank Stone - Ein Mann der Nacht
TTITLE3=Sammy´s Saloon - Mama, laß deinen Sohn nie Fernfahrer werden
TTITLE4=Tennessee - Tausche UFO gegen 30- Tonner Diesel
TTITLE5=Carl Kaye - Bring mich heim, Autobahn
TTITLE6=Timmel Truck - Truck durch Südtirol
TTITLE7=Sammy´s Saloon - Mich ruft die Autobahn
TTITLE8=Hank Stone - Ich bin ein Mann der Straße
TTITLE9=Carl Kaye - Mein Truck springt nicht an
TTITLE10=Gunter Gabriel - Franky´s Curry Station
TTITLE11=Fred Rai - Freiheit auf Rädern
TTITLE12=Hank Stone - Mein Laster wartet schon
TTITLE13=Hans Zuber - Diesel Liesel
TTITLE14=Gunter Gabriel - Ich bin CB- Funker
TTITLE15=Isabella Oldman - Trucker, Cowboy, Country Girl
EXTD=
EXTT0=
EXTT1=
EXTT2=
EXTT3=
EXTT4=
EXTT5=
EXTT6=
EXTT7=
EXTT8=
EXTT9=
EXTT10=
EXTT11=
EXTT12=
EXTT13=
EXTT14=
EXTT15=
PLAYORDER=
